<svg width="96" height="96" viewBox="0 0 96 96" fill="none" xmlns="http://www.w3.org/2000/svg">
  <rect x="8" y="8" width="80" height="80" rx="24" fill="url(#paint0_linear)"/>
  <rect x="8.75" y="8.75" width="78.5" height="78.5" rx="23.25" stroke="white" stroke-opacity=".72" stroke-width="1.5"/>
  <path d="M28 55.5C28 45.835 35.835 38 45.5 38h5C60.165 38 68 45.835 68 55.5v2.25c0 3.452-2.798 6.25-6.25 6.25-2.088 0-4.038-1.043-5.197-2.78L53 55.89H43l-3.553 5.33A6.25 6.25 0 0 1 34.25 64 6.25 6.25 0 0 1 28 57.75V55.5Z" fill="white"/>
  <path d="M38 47v8M34 51h8" stroke="#0F172A" stroke-width="3.5" stroke-linecap="round"/>
  <circle cx="56" cy="50" r="3" fill="#FF2E95"/>
  <circle cx="63" cy="55" r="3" fill="#7E24DD"/>
  <path d="M62.5 23.5 65 29l5.5 2.5L65 34l-2.5 5.5L60 34l-5.5-2.5L60 29l2.5-5.5Z" fill="white"/>
  <path d="M25.5 30.5 27 34l3.5 1.5L27 37l-1.5 3.5L24 37l-3.5-1.5L24 34l1.5-3.5Z" fill="white" fill-opacity=".9"/>
  <defs>
    <linearGradient id="paint0_linear" x1="16" y1="18" x2="82" y2="84" gradientUnits="userSpaceOnUse">
      <stop stop-color="#FF2E95"/>
      <stop offset=".52" stop-color="#C473F3"/>
      <stop offset="1" stop-color="#5A19D0"/>
    </linearGradient>
  </defs>
</svg>
