<svg width="160" height="120" viewBox="0 0 160 120" fill="none" xmlns="http://www.w3.org/2000/svg">
  <rect x="88" y="14" width="34" height="34" rx="10" fill="#FF2E95" fill-opacity=".9"/>
  <rect x="103" y="62" width="28" height="28" rx="9" fill="#C473F3" fill-opacity=".85"/>
  <rect x="48" y="76" width="30" height="30" rx="9" fill="#FFB5D8"/>
  <rect x="126" y="38" width="14" height="14" rx="5" fill="#7E24DD" fill-opacity=".72"/>
  <path d="M42 22 46.55 32.45 57 37 46.55 41.55 42 52 37.45 41.55 27 37 37.45 32.45 42 22Z" fill="#FF2E95"/>
  <path d="M70 36 72.9 42.1 79 45 72.9 47.9 70 54 67.1 47.9 61 45 67.1 42.1 70 36Z" fill="#0F172A" fill-opacity=".86"/>
  <circle cx="31" cy="78" r="5" fill="#FF2E95" fill-opacity=".78"/>
  <circle cx="137" cy="80" r="4" fill="#0F172A" fill-opacity=".2"/>
  <circle cx="82" cy="16" r="3" fill="#7E24DD" fill-opacity=".6"/>
</svg>
